PathFileType	4	(X/Y/Z)	/Users/visionmauri/Downloads/Videos/OAW12-top_Sports2D/OAW12-top_Sports2D_m_person00.trc
DataRate	CameraRate	NumFrames	NumMarkers	Units	OrigDataRate	OrigDataStartFrame	OrigNumFrames
25.0	25.0	7	22	m	25.0	0	1729
Frame#	Time	Hip			RHip			RKnee			RAnkle			RBigToe			RSmallToe			RHeel			LHip			LKnee			LAnkle			LBigToe			LSmallToe			LHeel			Neck			Head			Nose			RShoulder			RElbow			RWrist			LShoulder			LElbow			LWrist			
		X1	Y1	Z1	X2	Y2	Z2	X3	Y3	Z3	X4	Y4	Z4	X5	Y5	Z5	X6	Y6	Z6	X7	Y7	Z7	X8	Y8	Z8	X9	Y9	Z9	X10	Y10	Z10	X11	Y11	Z11	X12	Y12	Z12	X13	Y13	Z13	X14	Y14	Z14	X15	Y15	Z15	X16	Y16	Z16	X17	Y17	Z17	X18	Y18	Z18	X19	Y19	Z19	X20	Y20	Z20	X21	Y21	Z21	X22	Y22	Z22
0	0.0	2.9087995230315657	0.2918214393290178	0.0301	2.897518613476294	0.2597053831162559	0.0301	3.053198294285659	0.19845714786237637	0.129	3.149918901377353	0.1507963409958096	0.023	3.20696491708086	0.13382111677295505	0.2179	3.188272953678443	0.11892809221172264	0.1804	3.16052611497617	0.15207359685030616	-0.0119	2.9218246826320584	0.3232138139372254	0.0301	3.078567318745828	0.2547225101173155	0.129	3.17628445954238	0.2094111098329556	0.023	3.2268445931533076	0.18173398613290168	0.2179	3.2249132696042824	0.2023843303385297	0.1804	3.1815989065548838	0.20286327282475322	-0.0119	2.720913043577861	0.37359470901163344	0.0008	2.6428700471760087	0.40861105444019863	0.0655	2.705331030106536	0.379019512740982	0.1076	2.7201131159695517	0.3081039062259993	-0.01275	2.818621098008925	0.24614744043936368	0.0702	2.910518672436655	0.20869414131783579	0.1076	2.769101605048471	0.42122568451221043	-0.01275	2.8833545533389446	0.3923517107955631	0.0702	2.9686755074220055	0.3488617669292921	0.1076
1	0.04002314814814815	2.9093704206376914	0.2913337923019012	0.0301	2.8986811747745835	0.2591027360860537	0.0301	3.0534935189643573	0.19880438221494937	0.129	3.149854964150211	0.15128804254047606	0.023	3.206779579170039	0.13367538501300028	0.2179	3.1889256910553025	0.118670914782466	0.1804	3.1603175587975767	0.1526677298551015	-0.0119	2.9229039832831862	0.3223860768940339	0.0301	3.0785599541475075	0.2542812245321196	0.129	3.1761417530048393	0.20961133737061083	0.023	3.227660882541675	0.18213150197686065	0.2179	3.225646965999912	0.20286040103247413	0.1804	3.181146955627485	0.2032816803966919	-0.0119	2.719681424443014	0.3743861545561736	0.0008	2.642627697512361	0.4095377414496096	0.0655	2.7041074067486517	0.37984612898346054	0.1076	2.7202984324164166	0.3079395802634287	-0.01275	2.819107203642443	0.24654376133880157	0.0702	2.9105047177366643	0.2087854669439361	0.1076	2.768937812862046	0.4214230108993648	-0.01275	2.883095541192766	0.3924748150944236	0.0702	2.967867540989899	0.3492470007617891	0.1076
2	0.0800462962962963	2.9094375126846748	0.2908312619761436	0.0301	2.8990541277232165	0.2585338962907432	0.0301	3.053881868565328	0.19853695358681345	0.129	3.1495450777862155	0.15197960658074475	0.023	3.2075461923233837	0.13308345786860729	0.2179	3.189754241220222	0.11794161721146092	0.1804	3.1605227565626004	0.15314538009084866	-0.0119	2.92319351036825	0.3215958034591652	0.0301	3.07886376257607	0.2539568678803178	0.129	3.176333367850315	0.21002502048328833	0.023	3.2292342929539215	0.1828967020807183	0.2179	3.2273056127191353	0.2033628652458549	0.1804	3.1815430137310328	0.20349920930855475	-0.0119	2.7192993035067907	0.3749710089518834	0.0008	2.641909977406122	0.41119698577169495	0.0655	2.7040186128592474	0.38037231296607565	0.1076	2.719977137068599	0.30782712506651094	-0.01275	2.8196117431019174	0.24705458515560969	0.0702	2.910371331009977	0.20857626911808336	0.1076	2.768115707518516	0.4217661527805095	-0.01275	2.8826364480253845	0.3928455836422237	0.0702	2.967491143217783	0.34943343903015595	0.1076
3	0.12006944444444445	2.9086932784748774	0.2906091498005489	0.0301	2.898166203377205	0.25841495271431464	0.0301	3.053657246657175	0.1982159948138117	0.129	3.148862383819019	0.1525838939982984	0.023	3.20916420239686	0.1324434804826576	0.2179	3.190023917794911	0.11708820877001686	0.1804	3.1608252690236727	0.15298622118384078	-0.0119	2.9222781800926523	0.32146102235623064	0.0301	3.078735042414736	0.2542263535017624	0.129	3.1760260085979084	0.21079603043207576	0.023	3.2305470847527085	0.18374401369288743	0.2179	3.229012582946668	0.20350651381915486	0.1804	3.1826376961710436	0.2033447135400999	-0.0119	2.720613054807474	0.37486799243704066	0.0008	2.6406802525148696	0.41303391659528405	0.0655	2.705886028070907	0.3798166573496419	0.1076	2.718683699566732	0.3081343061638238	-0.01275	2.819593109835265	0.2474790428860342	0.0702	2.910133535464797	0.20799383645500866	0.1076	2.7663873723004215	0.4222509339842875	-0.01275	2.882181307755687	0.39320227572671324	0.0702	2.968211579873535	0.3491198818390436	0.1076
4	0.1600925925925926	2.9078882549712337	0.29067671271528667	0.0301	2.8971987084502637	0.25888323154747517	0.0301	3.0526261447957115	0.19903863407245773	0.129	3.1482726901866736	0.15280359234352323	0.023	3.210129278382743	0.13240246176934817	0.2179	3.1897930307426807	0.11675487590160978	0.1804	3.160555930881432	0.1522640892041982	-0.0119	2.9213322085271187	0.3220921911065202	0.0301	3.077683713359199	0.2550348208601834	0.129	3.1746170866386123	0.21151102595990262	0.023	3.2303150544872725	0.18408919774291674	0.2179	3.229103224583156	0.20359473454661323	0.1804	3.182728390120085	0.20335907928140035	-0.0119	2.720849443864195	0.3751000714513652	0.0008	2.6384929920528717	0.4146943125900533	0.0655	2.70593139275819	0.3794742499876653	0.1076	2.716780044479287	0.3089662837420331	-0.01275	2.8187735364485698	0.24778050347937722	0.0702	2.9100366564504614	0.20760867130172472	0.1076	2.764979769805369	0.42276266173172866	-0.01275	2.8818119812680676	0.3932457462075095	0.0702	2.9688186889097463	0.3489777826762375	0.1076
5	0.20011574074074073	2.9078552103954594	0.2907669752356227	0.0301	2.897115765942509	0.2594649989654515	0.0301	3.0520034544982773	0.2003855572470224	0.129	3.1485567688450407	0.15257925325238195	0.023	3.2097957063487903	0.13268203390050448	0.2179	3.1901831502855686	0.1166319506936792	0.1804	3.159936647247879	0.15166508087898714	-0.0119	2.9212931763788106	0.3226079266571633	0.0301	3.0768759448339575	0.25578430074385605	0.129	3.1734863223210232	0.21143900798822943	0.023	3.2289853228913508	0.18379984043570843	0.2179	3.2276449691655915	0.20420001123242104	0.1804	3.1813793366188716	0.2038860863731883	-0.0119	2.7179820224531444	0.3763390922783017	0.0008	2.6357791463016946	0.41607032547796097	0.0655	2.701470122282696	0.3810026666125121	0.1076	2.7156167892408036	0.30978089124988906	-0.01275	2.8179897721435876	0.24791515649136495	0.0702	2.9102540617024104	0.20808750927095873	0.1076	2.765102836406424	0.42312267512221496	-0.01275	2.8815598148975243	0.3930415079628333	0.0702	2.968284711414984	0.3495311841136993	0.1076
6	0.2401388888888889	2.908483315623291	0.29067225364910154	0.0301	2.8972251217011293	0.2593548391512821	0.0301	3.0524059514632067	0.20055995854805236	0.129	3.149424737222755	0.15226146163136728	0.023	3.2093701759544615	0.13251887355523903	0.2179	3.1914594736431767	0.11608909075649942	0.1804	3.1598819732534897	0.15153558998779487	-0.0119	2.9214863673743623	0.3221129346981962	0.0301	3.0769830456488214	0.2561235565328912	0.129	3.1736138957260556	0.21072346979280354	0.023	3.2278555644076103	0.183470489572483	0.2179	3.2262607507642826	0.20495576107366265	0.1804	3.1807164925713134	0.20422830502449726	-0.0119	2.7155114620260927	0.37704275929689757	0.0008	2.6347720145482723	0.4162320778752233	0.0655	2.6974838148473728	0.3827612566931555	0.1076	2.716143682384488	0.3098151836888244	-0.01275	2.81824434312337	0.2477055278312764	0.0702	2.91048614648591	0.2090792553972944	0.1076	2.766056729370202	0.42300703589000305	-0.01275	2.88193304323094	0.3926883679907867	0.0702	2.967581563931575	0.34990610476737394	0.1076
